<svg width="18" height="18" viewBox="0 0 18 18" fill="none" xmlns="http://www.w3.org/2000/svg">
<path fill-rule="evenodd" clip-rule="evenodd" d="M12.5 5.5C12.5 7.433 10.933 9 9 9C7.067 9 5.5 7.433 5.5 5.5C5.5 3.567 7.067 2 9 2C10.933 2 12.5 3.567 12.5 5.5ZM14 5.5C14 8.26142 11.7614 10.5 9 10.5C6.23858 10.5 4 8.26142 4 5.5C4 2.73858 6.23858 0.5 9 0.5C11.7614 0.5 14 2.73858 14 5.5ZM3 15.5C3 14.1193 4.11929 13 5.5 13H12.5C13.8807 13 15 14.1193 15 15.5C15 15.7761 14.7761 16 14.5 16H3.5C3.22386 16 3 15.7761 3 15.5ZM1.5 15.5C1.5 13.2909 3.29086 11.5 5.5 11.5H12.5C14.7091 11.5 16.5 13.2909 16.5 15.5C16.5 16.6046 15.6046 17.5 14.5 17.5H3.5C2.39543 17.5 1.5 16.6046 1.5 15.5Z" fill="#333333"/>
</svg>
